<svg xmlns="http://www.w3.org/2000/svg" viewBox="0 0 106.82 111.09"><defs><style>.cls-1,.cls-5{fill:none}.cls-1{stroke:#ff9fab;stroke-linecap:round}.cls-1,.cls-5,.cls-6{stroke-miterlimit:10}.cls-1,.cls-6{stroke-width:3px}.cls-6{fill:#fff}.cls-3{fill:#ff9fab}.cls-5{stroke:#bfbfbf;stroke-width:2px}.cls-6{stroke:#aaa}</style></defs><g id="Layer_2" data-name="Layer 2"><g id="Layer_1-2" data-name="Layer 1"><rect class="cls-1" x="28.21" y="18.34" width="28.72" height="33" rx="3" ry="3" transform="rotate(-62.58 42.575 34.844)"/><rect x="23.32" y="21.59" width="68" height="33" rx="3" ry="3" transform="rotate(-60 57.322 38.095)" fill="#fff" stroke-width="3" stroke-miterlimit="10" stroke="#ff9fab" stroke-linecap="round"/><circle class="cls-3" cx="66.82" cy="27.09" r="3"/><path class="cls-3" d="M60.65 2.09h5.18v5.18A2.82 2.82 0 0 1 63 10.09h-4.93a.24.24 0 0 1-.24-.24V4.92a2.82 2.82 0 0 1 2.82-2.82z" transform="rotate(30 61.832 6.092)"/><path class="cls-3" d="M80 15.09h5a2.85 2.85 0 0 1 2.85 2.85v5.13h-5.18a2.85 2.85 0 0 1-2.85-2.85V15.3a.21.21 0 0 1 .21-.21z" transform="rotate(30 83.818 19.101)"/><path d="M3.84 14.87a.85.85 0 0 1 1-1 .85.85 0 0 1 1 1v2.9h2.81a1 1 0 1 1 0 1.95H5.79v2.86a.85.85 0 0 1-1 1 .85.85 0 0 1-1-1v-2.85H1a1 1 0 0 1 0-1.95h2.84zm91.07 80.29a.9.9 0 1 1 1.81 0v2.69h2.65a.9.9 0 1 1 0 1.81h-2.65v2.65a.9.9 0 1 1-1.81 0v-2.66h-2.66a.9.9 0 0 1 0-1.81h2.65z" fill="#bfbfbf"/><circle class="cls-5" cx="103.32" cy="14.59" r="2.5"/><circle class="cls-5" cx="84.32" cy="107.59" r="2.5"/><rect class="cls-6" x="12.34" y="32.59" width="78.97" height="57" rx="8" ry="8"/><rect class="cls-6" x="68.32" y="55.59" width="32" height="10" rx="5" ry="5"/><path class="cls-1" d="M74.32 60.59h7"/></g></g></svg>