<svg xmlns="http://www.w3.org/2000/svg" viewBox="0 0 130.8 115.5"><defs><style>.cls-1{fill:#bfbfbf}.cls-2{fill:none;stroke-miterlimit:10;stroke:#bfbfbf;stroke-width:2px}</style></defs><g id="Layer_2" data-name="Layer 2"><g id="Layer_1-2" data-name="Layer 1"><path class="cls-1" d="M125 5.28a1 1 0 1 1 1.95 0v2.9h2.86a.9.9 0 0 1 1 1 .9.9 0 0 1-1 1H127V13a1 1 0 1 1-2 0v-2.87h-2.86a.9.9 0 0 1-1-1 .9.9 0 0 1 1-1H125z"/><circle class="cls-2" cx="116.5" cy="19" r="2.5"/><path class="cls-1" d="M26.09 101.56a.9.9 0 1 1 1.81 0v2.69h2.65a.9.9 0 1 1 0 1.81h-2.66v2.65a.9.9 0 1 1-1.81 0v-2.65h-2.65a.9.9 0 0 1 0-1.81h2.65z"/><circle class="cls-2" cx="35.5" cy="112" r="2.5" transform="rotate(-45 35.504 112.004)"/><circle cx="72" cy="58.5" r="49.5" stroke-width="3" stroke="#aaa" fill="none" stroke-miterlimit="10"/><circle cx="72.5" cy="59" r="5" fill="#ff9fab"/><path d="M63 2h18m17.21 5.06l4.5 2.64M4 60.5h17m-10 8h10m-6 7h8m-18-7H2" stroke-width="4" stroke-linecap="round" stroke="#aaa" fill="none" stroke-miterlimit="10"/><path d="M65.5 52L45 31.5M82.5 59h24" stroke="#ff9fab" stroke-linecap="round" stroke-width="3" fill="none" stroke-miterlimit="10"/></g></g></svg>