<svg xmlns="http://www.w3.org/2000/svg" viewBox="0 0 142.82 132.19"><defs><style>.cls-1{fill:#fff}.cls-2{fill:#aaa}.cls-6{fill:none;stroke-miterlimit:10;stroke:#bfbfbf;stroke-width:2px}</style></defs><g id="Layer_2" data-name="Layer 2"><g id="Layer_1-2" data-name="Layer 1"><rect class="cls-1" x="34.32" y="21.69" width="81" height="97" rx="3.5" ry="3.5"/><path class="cls-2" d="M111.82 23.19a2 2 0 0 1 2 2v90a2 2 0 0 1-2 2h-74a2 2 0 0 1-2-2v-90a2 2 0 0 1 2-2h74m0-3h-74a5 5 0 0 0-5 5v90a5 5 0 0 0 5 5h74a5 5 0 0 0 5-5v-90a5 5 0 0 0-5-5z"/><rect class="cls-1" x="23.51" y="33.69" width="78.62" height="97" rx="3.5" ry="3.5"/><path class="cls-2" d="M98.64 35.19a2 2 0 0 1 2 2v90a2 2 0 0 1-2 2H27a2 2 0 0 1-2-2v-90a2 2 0 0 1 2-2h71.64m0-3H27a5 5 0 0 0-5 5v90a5 5 0 0 0 5 5h71.64a5 5 0 0 0 5-5v-90a5 5 0 0 0-5-5z"/><path stroke-linecap="round" stroke-width="3" stroke="#ff9fab" fill="none" stroke-miterlimit="10" d="M35.32 49.69h53"/><path d="M34.32 66.69h32m8 0h14m-54 10h32m8 0h14m-54 11h32m8 0h14m-54 10h32m8 0h14" stroke-linecap="round" stroke-width="3" stroke="#aaa" fill="none" stroke-miterlimit="10"/><path d="M121.84 1a1 1 0 0 1 1.95 0v2.9h2.86a.9.9 0 0 1 1 1 .9.9 0 0 1-1 1h-2.86v2.79a1 1 0 0 1-1.95 0V5.83H119a.9.9 0 0 1-1-1 .9.9 0 0 1 1-1h2.86zm-118 113a.85.85 0 0 1 1-1 .85.85 0 0 1 1 1v2.9h2.81a1 1 0 1 1 0 1.95H5.79v2.86a.85.85 0 0 1-1 1 .85.85 0 0 1-1-1v-2.86H1a1 1 0 0 1 0-1.95h2.84z" fill="#bfbfbf"/><circle class="cls-6" cx="23.32" cy="8.69" r="3.5"/><circle class="cls-6" cx="139.32" cy="33.69" r="2.5"/></g></g></svg>